<!DOCTYPE svg PUBLIC "-//W3C//DTD SVG 1.1//EN" "http://www.w3.org/Graphics/SVG/1.1/DTD/svg11.dtd">
<!-- Uploaded to: SVG Repo, www.svgrepo.com, Transformed by: SVG Repo Mixer Tools -->
<svg height="800px" width="800px" version="1.1" id="Capa_1" xmlns="http://www.w3.org/2000/svg" xmlns:xlink="http://www.w3.org/1999/xlink" viewBox="-5.6 -5.6 67.23 67.23" xml:space="preserve" fill="#000000" transform="rotate(45)matrix(-1, 0, 0, 1, 0, 0)">
<g id="SVGRepo_bgCarrier" stroke-width="0" transform="translate(0,0), scale(1)">
<path transform="translate(-5.6, -5.6), scale(4.201875)" fill="#ccffde" d="M9.166.33a2.25 2.25 0 00-2.332 0l-5.25 3.182A2.25 2.25 0 00.5 5.436v5.128a2.25 2.25 0 001.084 1.924l5.25 3.182a2.25 2.25 0 002.332 0l5.25-3.182a2.25 2.25 0 001.084-1.924V5.436a2.25 2.25 0 00-1.084-1.924L9.166.33z" strokewidth="0"/>
</g>
<g id="SVGRepo_tracerCarrier" stroke-linecap="round" stroke-linejoin="round" stroke="#CCCCCC" stroke-width="0.33616799999999997"/>
<g id="SVGRepo_iconCarrier"> <path style="fill:#2fee8c;" d="M19.807,33.223c-0.327,0.04-0.654,0.079-0.981,0.115c-0.549,0.062-0.944,0.557-0.883,1.105 c0.058,0.511,0.49,0.889,0.993,0.889c0.037,0,0.074-0.002,0.112-0.006c0.335-0.038,0.67-0.077,1.005-0.119 c0.548-0.067,0.938-0.567,0.869-1.115C20.855,33.544,20.356,33.144,19.807,33.223z"/> <path style="fill:#2fee8c;" d="M15.918,33.561c-0.317,0.009-0.644,0.016-0.979,0.018c-0.552,0.003-0.997,0.453-0.994,1.006 c0.003,0.55,0.45,0.994,1,0.994c0.002,0,0.004,0,0.006,0c0.349-0.002,0.69-0.009,1.021-0.018c0.552-0.016,0.987-0.475,0.973-1.027 S16.451,33.552,15.918,33.561z"/> <path style="fill:#2fee8c;" d="M27.73,32.119c-0.335,0.041-0.669,0.086-1.003,0.131c-0.547,0.075-0.931,0.579-0.856,1.126 c0.068,0.502,0.497,0.865,0.99,0.865c0.045,0,0.09-0.003,0.136-0.009c0.326-0.045,0.652-0.088,0.979-0.129 c0.548-0.067,0.938-0.567,0.869-1.115S28.282,32.039,27.73,32.119z"/> <path style="fill:#2fee8c;" d="M12.024,33.473c-0.32-0.024-0.643-0.054-0.966-0.089c-0.546-0.06-1.042,0.337-1.102,0.887 c-0.06,0.549,0.337,1.042,0.887,1.102c0.343,0.037,0.687,0.068,1.026,0.095c0.026,0.002,0.053,0.003,0.078,0.003 c0.518,0,0.956-0.398,0.996-0.923C12.986,33.996,12.574,33.515,12.024,33.473z"/> <path style="fill:#2fee8c;" d="M1.048,31.238c0.216,0,0.435-0.07,0.617-0.214c0.435-0.342,0.509-0.971,0.168-1.404 c-0.177-0.224-0.333-0.459-0.466-0.697c-0.073-0.131-0.173-0.234-0.287-0.317c-0.345,0.342-0.63,0.754-0.819,1.227v0 c-0.095,0.237-0.156,0.479-0.201,0.723c0.07,0.099,0.125,0.205,0.201,0.301C0.458,31.108,0.752,31.238,1.048,31.238z"/> <path style="fill:#2fee8c;" d="M8.204,32.925c-0.313-0.069-0.623-0.145-0.929-0.227c-0.532-0.144-1.081,0.173-1.225,0.707 c-0.144,0.533,0.173,1.081,0.707,1.225c0.335,0.09,0.674,0.173,1.017,0.248c0.072,0.016,0.145,0.023,0.216,0.023 c0.459,0,0.873-0.318,0.976-0.785C9.085,33.577,8.744,33.044,8.204,32.925z"/> <path style="fill:#2fee8c;" d="M4.634,31.739c-0.278-0.134-0.547-0.276-0.804-0.43c-0.475-0.282-1.088-0.127-1.371,0.348 c-0.282,0.475-0.127,1.089,0.348,1.371c0.308,0.183,0.629,0.354,0.96,0.514c0.14,0.067,0.287,0.099,0.433,0.099 c0.373,0,0.73-0.209,0.902-0.566C5.341,32.576,5.131,31.979,4.634,31.739z"/> <path style="fill:#2fee8c;" d="M23.741,32.675l-0.983,0.145c-0.547,0.079-0.926,0.586-0.846,1.133 c0.072,0.498,0.499,0.856,0.988,0.856c0.048,0,0.096-0.003,0.145-0.011l0.995-0.146c0.546-0.082,0.922-0.592,0.839-1.138 C24.797,32.968,24.287,32.592,23.741,32.675z"/> <path style="fill:#2fee8c;" d="M47.713,33.589c-0.312-0.014-0.627-0.038-0.944-0.069c-0.571-0.055-1.04,0.349-1.094,0.896 c-0.055,0.55,0.347,1.039,0.896,1.094c0.354,0.035,0.705,0.062,1.052,0.077c0.016,0.001,0.03,0.001,0.046,0.001 c0.531,0,0.975-0.419,0.998-0.955C48.692,34.081,48.265,33.613,47.713,33.589z"/> <path style="fill:#2fee8c;" d="M51.301,33.207c-0.271,0.092-0.552,0.165-0.842,0.223c-0.541,0.108-0.893,0.635-0.784,1.177 c0.095,0.476,0.513,0.804,0.979,0.804c0.064,0,0.131-0.006,0.197-0.02c0.381-0.076,0.746-0.173,1.088-0.287 c0.523-0.177,0.805-0.744,0.629-1.268C52.393,33.314,51.831,33.034,51.301,33.207z"/> <path style="fill:#2fee8c;" d="M55.269,30.928c-0.463-0.298-1.084-0.164-1.382,0.3c-0.152,0.236-0.321,0.457-0.505,0.657 c-0.372,0.408-0.344,1.04,0.063,1.413c0.192,0.175,0.434,0.262,0.675,0.262c0.271,0,0.541-0.109,0.738-0.325 c0.259-0.283,0.498-0.595,0.71-0.925C55.867,31.845,55.734,31.227,55.269,30.928z"/> <path style="fill:#2fee8c;" d="M54.909,28.509c-0.017,0.092-0.036,0.182-0.056,0.27c-0.121,0.538,0.217,1.074,0.756,1.195 c0.074,0.017,0.147,0.024,0.221,0.024c0.062,0,0.12-0.02,0.18-0.031c-0.04-0.702-0.15-1.45-0.338-2.245 C55.296,27.809,54.985,28.106,54.909,28.509z"/> <path style="fill:#2fee8c;" d="M35.895,31.669l-0.304-0.014c-0.249-0.009-0.498-0.015-0.748-0.018 c-0.527-0.048-1.005,0.435-1.012,0.988c-0.007,0.552,0.436,1.005,0.988,1.012c0.236,0.003,0.472,0.009,0.707,0.016l0.241,0.012 c0.021,0.001,0.043,0.002,0.064,0.002c0.523,0,0.963-0.407,0.997-0.937C36.865,32.18,36.447,31.704,35.895,31.669z"/> <path style="fill:#2fee8c;" d="M31.766,31.72c-0.338,0.023-0.675,0.048-1.012,0.075c-0.551,0.046-0.96,0.528-0.915,1.079 c0.044,0.522,0.48,0.918,0.996,0.918c0.027,0,0.055-0.001,0.083-0.003c0.327-0.027,0.654-0.052,0.982-0.073 c0.551-0.037,0.968-0.515,0.931-1.065S32.343,31.695,31.766,31.72z"/> <path style="fill:#2fee8c;" d="M39.983,32.288c-0.338-0.068-0.669-0.135-0.996-0.195c-0.541-0.101-1.065,0.255-1.167,0.798 c-0.103,0.543,0.255,1.065,0.798,1.167c0.317,0.061,0.641,0.125,0.969,0.191c0.066,0.014,0.134,0.02,0.199,0.02 c0.466,0,0.883-0.327,0.979-0.802C40.874,32.926,40.524,32.398,39.983,32.288z"/> <path style="fill:#2fee8c;" d="M43.889,33.091c-0.323-0.062-0.647-0.125-0.971-0.189c-0.548-0.114-1.069,0.243-1.177,0.784 c-0.108,0.542,0.243,1.068,0.784,1.177c0.331,0.066,0.663,0.132,0.994,0.193c0.063,0.012,0.124,0.018,0.186,0.018 c0.472,0,0.892-0.335,0.981-0.815C44.789,33.715,44.432,33.192,43.889,33.091z"/> <path style="fill:#38454F;" d="M55.83,29.998c-0.073,0-0.146-0.008-0.221-0.024c-0.539-0.121-0.877-0.657-0.756-1.195 c0.02-0.088,0.039-0.178,0.056-0.27c0.076-0.403,0.386-0.699,0.763-0.787c-0.052-0.218-0.103-0.435-0.167-0.659 c-0.067-0.237-0.163-0.461-0.258-0.682l-2.413-6.417c-0.433-1.152-1.972-1.363-2.699-0.37c-1.326,1.812-3.466,3.128-5.71,3.044 h-4.411l-4-4.468c-0.813-0.58-1.864-0.696-2.78-0.299c-1.643,0.712-3.513,1.986-5.737,3.396l5.253,5.693 c0.374,0.405,0.349,1.038-0.058,1.413c-0.192,0.177-0.435,0.265-0.678,0.265c-0.27,0-0.538-0.108-0.735-0.322l-5.378-5.829 c-0.046-0.05-0.067-0.111-0.101-0.166c-0.743,0.448-1.524,0.9-2.347,1.343l4.268,4.268c0.391,0.391,0.391,1.023,0,1.414 c-0.195,0.195-0.451,0.293-0.707,0.293s-0.512-0.098-0.707-0.293l-4.5-4.5c-0.078-0.078-0.128-0.17-0.174-0.263 c-0.724,0.347-1.472,0.685-2.258,1.002l3.347,3.347c0.391,0.391,0.391,1.023,0,1.414c-0.195,0.195-0.451,0.293-0.707,0.293 s-0.512-0.098-0.707-0.293l-3.668-3.668c-0.109-0.109-0.18-0.239-0.228-0.376c-0.857,0.288-1.741,0.557-2.672,0.788 c-1.09,0.27-2.215,0.402-3.338,0.548H3.719c-1.013-0.097-1.953,0.288-2.639,0.968c0.114,0.083,0.214,0.186,0.287,0.317 c0.133,0.238,0.289,0.474,0.466,0.697c0.341,0.434,0.267,1.063-0.168,1.404c-0.183,0.144-0.401,0.214-0.617,0.214 c-0.296,0-0.59-0.131-0.787-0.382c-0.075-0.096-0.13-0.202-0.201-0.301c-0.26,1.432,0.328,2.917,1.576,3.749 c0.039,0.026,0.079,0.052,0.119,0.079c4.515,2.981,9.753,4.276,15.14,3.771c3.817-0.357,9.697-0.978,14.115-1.764 c2.641-0.47,5.346-0.414,7.958,0.2l5.214,1.227l0.07,0.024c0.067,0.024,0.136,0.047,0.205,0.069 c5.047,1.601,11.97-0.741,11.555-7.943C55.95,29.979,55.893,29.998,55.83,29.998z M5.102,33.074 c-0.172,0.357-0.529,0.566-0.902,0.566c-0.146,0-0.293-0.031-0.433-0.099c-0.331-0.159-0.652-0.331-0.96-0.514 c-0.475-0.282-0.63-0.896-0.348-1.371c0.283-0.475,0.896-0.63,1.371-0.348c0.257,0.153,0.525,0.296,0.804,0.43 C5.131,31.979,5.341,32.576,5.102,33.074z M8.966,34.116c-0.103,0.467-0.517,0.785-0.976,0.785c-0.071,0-0.144-0.008-0.216-0.023 c-0.343-0.075-0.682-0.158-1.017-0.248c-0.534-0.144-0.851-0.691-0.707-1.225c0.144-0.534,0.692-0.851,1.225-0.707 c0.306,0.082,0.615,0.157,0.929,0.227C8.744,33.044,9.085,33.577,8.966,34.116z M11.948,35.47c-0.025,0-0.052-0.001-0.078-0.003 c-0.34-0.026-0.684-0.058-1.026-0.095c-0.55-0.06-0.946-0.553-0.887-1.102c0.06-0.55,0.556-0.946,1.102-0.887 c0.323,0.035,0.646,0.064,0.966,0.089c0.55,0.042,0.962,0.523,0.92,1.074C12.904,35.071,12.465,35.47,11.948,35.47z M15.973,35.561 c-0.331,0.009-0.673,0.016-1.021,0.018c-0.002,0-0.004,0-0.006,0c-0.55,0-0.997-0.444-1-0.994c-0.003-0.553,0.442-1.003,0.994-1.006 c0.335-0.002,0.661-0.009,0.979-0.018c0.533-0.009,1.013,0.42,1.027,0.973S16.525,35.545,15.973,35.561z M20.053,35.207 c-0.335,0.042-0.67,0.081-1.005,0.119c-0.038,0.004-0.075,0.006-0.112,0.006c-0.503,0-0.936-0.378-0.993-0.889 c-0.062-0.549,0.334-1.044,0.883-1.105c0.327-0.036,0.654-0.075,0.981-0.115c0.549-0.079,1.048,0.321,1.115,0.869 C20.99,34.64,20.601,35.14,20.053,35.207z M24.04,34.651l-0.995,0.146c-0.049,0.008-0.097,0.011-0.145,0.011 c-0.489,0-0.916-0.358-0.988-0.856c-0.08-0.547,0.299-1.054,0.846-1.133l0.983-0.145c0.546-0.083,1.056,0.293,1.138,0.839 C24.962,34.06,24.586,34.569,24.04,34.651z M27.976,34.104c-0.327,0.041-0.653,0.084-0.979,0.129 c-0.046,0.006-0.091,0.009-0.136,0.009c-0.493,0-0.922-0.363-0.99-0.865c-0.074-0.547,0.31-1.051,0.856-1.126 c0.334-0.045,0.668-0.09,1.003-0.131c0.552-0.08,1.047,0.321,1.115,0.869S28.524,34.036,27.976,34.104z M31.901,33.716 c-0.328,0.021-0.655,0.046-0.982,0.073c-0.028,0.002-0.056,0.003-0.083,0.003c-0.516,0-0.952-0.396-0.996-0.918 c-0.045-0.551,0.364-1.033,0.915-1.079c0.337-0.027,0.674-0.052,1.012-0.075c0.577-0.024,1.028,0.38,1.065,0.931 S32.451,33.679,31.901,33.716z M35.832,33.667c-0.021,0-0.043-0.001-0.064-0.002l-0.241-0.012c-0.235-0.007-0.471-0.013-0.707-0.016 c-0.553-0.007-0.995-0.46-0.988-1.012c0.007-0.554,0.484-1.036,1.012-0.988c0.25,0.003,0.499,0.009,0.748,0.018l0.304,0.014 c0.552,0.035,0.97,0.511,0.935,1.062C36.795,33.26,36.356,33.667,35.832,33.667z M39.785,34.269c-0.065,0-0.133-0.006-0.199-0.02 c-0.328-0.066-0.651-0.131-0.969-0.191c-0.543-0.102-0.9-0.624-0.798-1.167c0.102-0.543,0.626-0.898,1.167-0.798 c0.327,0.061,0.658,0.127,0.996,0.195c0.541,0.109,0.892,0.638,0.782,1.179C40.668,33.942,40.251,34.269,39.785,34.269z M43.705,35.073c-0.062,0-0.123-0.006-0.186-0.018c-0.331-0.062-0.663-0.127-0.994-0.193c-0.541-0.108-0.893-0.635-0.784-1.177 c0.107-0.541,0.629-0.898,1.177-0.784c0.323,0.064,0.647,0.128,0.971,0.189c0.543,0.102,0.9,0.624,0.798,1.167 C44.597,34.738,44.177,35.073,43.705,35.073z M47.669,35.588c-0.016,0-0.03,0-0.046-0.001c-0.347-0.016-0.697-0.042-1.052-0.077 c-0.55-0.055-0.951-0.544-0.896-1.094c0.054-0.548,0.522-0.951,1.094-0.896c0.317,0.031,0.633,0.056,0.944,0.069 c0.552,0.024,0.979,0.492,0.954,1.044C48.644,35.169,48.2,35.588,47.669,35.588z M51.94,35.104 c-0.342,0.114-0.707,0.211-1.088,0.287c-0.066,0.014-0.133,0.02-0.197,0.02c-0.467,0-0.885-0.328-0.979-0.804 c-0.108-0.542,0.243-1.068,0.784-1.177c0.29-0.058,0.571-0.131,0.842-0.223c0.53-0.173,1.092,0.106,1.268,0.629 C52.744,34.359,52.463,34.927,51.94,35.104z M55.569,32.31c-0.212,0.33-0.451,0.642-0.71,0.925 c-0.197,0.216-0.468,0.325-0.738,0.325c-0.241,0-0.482-0.087-0.675-0.262c-0.407-0.373-0.436-1.005-0.063-1.413 c0.184-0.2,0.353-0.421,0.505-0.657c0.298-0.464,0.919-0.598,1.382-0.3C55.734,31.227,55.867,31.845,55.569,32.31z"/> <path style="fill:#ECF0F1;" d="M31.28,28.316c0.197,0.214,0.466,0.322,0.735,0.322c0.243,0,0.485-0.088,0.678-0.265 c0.406-0.375,0.432-1.008,0.058-1.413l-5.253-5.693c-0.545,0.346-1.106,0.697-1.697,1.053c0.034,0.056,0.055,0.117,0.101,0.166 L31.28,28.316z"/> <path style="fill:#ECF0F1;" d="M26.308,29.345c0.195,0.195,0.451,0.293,0.707,0.293s0.512-0.098,0.707-0.293 c0.391-0.391,0.391-1.023,0-1.414l-4.268-4.268c-0.583,0.314-1.195,0.619-1.821,0.919c0.047,0.093,0.097,0.185,0.174,0.263 L26.308,29.345z"/> <path style="fill:#ECF0F1;" d="M21.308,30.345c0.195,0.195,0.451,0.293,0.707,0.293s0.512-0.098,0.707-0.293 c0.391-0.391,0.391-1.023,0-1.414l-3.347-3.347c-0.631,0.254-1.29,0.491-1.964,0.717c0.048,0.137,0.119,0.266,0.228,0.376 L21.308,30.345z"/> </g>
</svg>